<mxfile host="Electron" agent="Mozilla/5.0 (Windows NT 10.0; Win64; x64) AppleWebKit/537.36 (KHTML, like Gecko) draw.io/24.7.17 Chrome/128.0.6613.36 Electron/32.0.1 Safari/537.36" version="24.7.17">
  <diagram name="第 1 页" id="eX4d3PN98kYnHpFHDGFP">
    <mxGraphModel dx="1034" dy="836" grid="0" gridSize="10" guides="1" tooltips="1" connect="1" arrows="1" fold="1" page="0" pageScale="1" pageWidth="827" pageHeight="1169" math="0" shadow="0">
      <root>
        <mxCell id="0" />
        <mxCell id="1" parent="0" />
        <mxCell id="gLJ7GXRF21owEPoORYJ0-1" value="BloggerAgent" style="rounded=0;whiteSpace=wrap;html=1;verticalAlign=top;labelBackgroundColor=none;fontStyle=1;fontFamily=Nunito;" vertex="1" parent="1">
          <mxGeometry x="595" y="212" width="325" height="228" as="geometry" />
        </mxCell>
        <mxCell id="gLJ7GXRF21owEPoORYJ0-24" value="Prompt&lt;div&gt;&lt;br&gt;&lt;div&gt;date &amp;amp; time&lt;/div&gt;&lt;/div&gt;" style="rounded=0;whiteSpace=wrap;html=1;verticalAlign=top;labelBackgroundColor=none;fillColor=#09555B;strokeColor=#BAC8D3;fontColor=#EEEEEE;fontFamily=Nunito;" vertex="1" parent="1">
          <mxGeometry x="605" y="239" width="70" height="80" as="geometry" />
        </mxCell>
        <mxCell id="gLJ7GXRF21owEPoORYJ0-25" value="Tools" style="rounded=0;whiteSpace=wrap;html=1;verticalAlign=top;labelBackgroundColor=none;fillColor=#182E3E;strokeColor=#FFFFFF;fontColor=#FFFFFF;fontFamily=Nunito;" vertex="1" parent="1">
          <mxGeometry x="767" y="239" width="144" height="188" as="geometry" />
        </mxCell>
        <mxCell id="gLJ7GXRF21owEPoORYJ0-26" value="Duckduckgo search" style="rounded=0;whiteSpace=wrap;html=1;labelBackgroundColor=none;fillColor=#182E3E;strokeColor=#FFFFFF;fontColor=#FFFFFF;fontFamily=Nunito;" vertex="1" parent="1">
          <mxGeometry x="776" y="270" width="120" height="33" as="geometry" />
        </mxCell>
        <mxCell id="gLJ7GXRF21owEPoORYJ0-27" value="CurrentTime" style="rounded=0;whiteSpace=wrap;html=1;labelBackgroundColor=none;fillColor=#182E3E;strokeColor=#FFFFFF;fontColor=#FFFFFF;fontFamily=Nunito;" vertex="1" parent="1">
          <mxGeometry x="776" y="312.5" width="120" height="33" as="geometry" />
        </mxCell>
        <mxCell id="gLJ7GXRF21owEPoORYJ0-28" value="Silicon Flux" style="rounded=0;whiteSpace=wrap;html=1;labelBackgroundColor=none;fillColor=#182E3E;strokeColor=#FFFFFF;fontColor=#FFFFFF;fontFamily=Nunito;" vertex="1" parent="1">
          <mxGeometry x="776" y="356" width="120" height="33" as="geometry" />
        </mxCell>
        <mxCell id="gLJ7GXRF21owEPoORYJ0-29" value="Settings" style="rounded=0;whiteSpace=wrap;html=1;verticalAlign=top;labelBackgroundColor=none;fillColor=#FAE5C7;strokeColor=#0F8B8D;fontColor=#143642;fontFamily=Nunito;fontStyle=1" vertex="1" parent="1">
          <mxGeometry x="607" y="330" width="152" height="98" as="geometry" />
        </mxCell>
        <mxCell id="gLJ7GXRF21owEPoORYJ0-30" value="mode= function calling" style="rounded=0;whiteSpace=wrap;html=1;labelBackgroundColor=none;fillColor=#FAE5C7;strokeColor=#0F8B8D;fontColor=#143642;fontFamily=Nunito;" vertex="1" parent="1">
          <mxGeometry x="614" y="354.25" width="134" height="33" as="geometry" />
        </mxCell>
        <mxCell id="gLJ7GXRF21owEPoORYJ0-31" value="iteration=4" style="rounded=0;whiteSpace=wrap;html=1;align=left;labelBackgroundColor=none;fillColor=#FAE5C7;strokeColor=#0F8B8D;fontColor=#143642;fontFamily=Nunito;" vertex="1" parent="1">
          <mxGeometry x="614" y="391.75" width="133" height="28" as="geometry" />
        </mxCell>
        <mxCell id="gLJ7GXRF21owEPoORYJ0-32" value="GPT-4o" style="whiteSpace=wrap;html=1;aspect=fixed;fillColor=#BC6C25;fontColor=#FEFAE0;strokeColor=#DDA15E;strokeWidth=2;labelBackgroundColor=none;fontFamily=Nunito;" vertex="1" parent="1">
          <mxGeometry x="679" y="239" width="80" height="80" as="geometry" />
        </mxCell>
      </root>
    </mxGraphModel>
  </diagram>
</mxfile>
